<svg width="30" height="30" viewBox="0 0 30 30" fill="none" xmlns="http://www.w3.org/2000/svg">
<path d="M21.25 13.75H23.75C24.413 13.75 25.0489 14.0134 25.5178 14.4822C25.9866 14.9511 26.25 15.587 26.25 16.25V18.75C26.25 19.0815 26.1183 19.3995 25.8839 19.6339C25.6495 19.8683 25.3315 20 25 20H23.125M21.25 13.75H6.25M21.25 13.75L18.2288 8.71375C18.0066 8.34356 17.6924 8.03719 17.3168 7.82449C16.9411 7.61179 16.5167 7.5 16.085 7.5H10.92C10.4556 7.50002 10.0004 7.62937 9.60547 7.87355C9.21049 8.11774 8.89132 8.46711 8.68375 8.8825L6.25 13.75M23.125 20C23.125 20.663 22.8616 21.2989 22.3928 21.7678C21.9239 22.2366 21.288 22.5 20.625 22.5C19.962 22.5 19.3261 22.2366 18.8572 21.7678C18.3884 21.2989 18.125 20.663 18.125 20M23.125 20C23.125 19.337 22.8616 18.7011 22.3928 18.2322C21.9239 17.7634 21.288 17.5 20.625 17.5C19.962 17.5 19.3261 17.7634 18.8572 18.2322C18.3884 18.7011 18.125 19.337 18.125 20M6.25 13.75C5.58696 13.75 4.95107 14.0134 4.48223 14.4822C4.01339 14.9511 3.75 15.587 3.75 16.25V18.75C3.75 19.0815 3.8817 19.3995 4.11612 19.6339C4.35054 19.8683 4.66848 20 5 20H6.875M6.875 20C6.875 20.663 7.13839 21.2989 7.60723 21.7678C8.07607 22.2366 8.71196 22.5 9.375 22.5C10.038 22.5 10.6739 22.2366 11.1428 21.7678C11.6116 21.2989 11.875 20.663 11.875 20M6.875 20C6.875 19.337 7.13839 18.7011 7.60723 18.2322C8.07607 17.7634 8.71196 17.5 9.375 17.5C10.038 17.5 10.6739 17.7634 11.1428 18.2322C11.6116 18.7011 11.875 19.337 11.875 20M11.875 20H18.125" stroke="black" stroke-width="2" stroke-linecap="round" stroke-linejoin="round"/>
</svg>
