<svg width="80" height="80" viewBox="0 0 80 80" fill="none" xmlns="http://www.w3.org/2000/svg">
<mask id="path-1-inside-1_28_1904" fill="white">
<path d="M0 40C0 17.9086 17.9086 0 40 0C62.0914 0 80 17.9086 80 40C80 62.0914 62.0914 80 40 80C17.9086 80 0 62.0914 0 40Z"/>
</mask>
<path d="M0 40C0 17.9086 17.9086 0 40 0C62.0914 0 80 17.9086 80 40C80 62.0914 62.0914 80 40 80C17.9086 80 0 62.0914 0 40Z" fill="#F8F6F2"/>
<path d="M0 40M80 40M80 40M0 40M40 0M80 40M40 80M0 40M40 80V78C19.0132 78 2 60.9868 2 40H0H-2C-2 63.196 16.804 82 40 82V80ZM80 40H78C78 60.9868 60.9868 78 40 78V80V82C63.196 82 82 63.196 82 40H80ZM40 0V2C60.9868 2 78 19.0132 78 40H80H82C82 16.804 63.196 -2 40 -2V0ZM40 0V-2C16.804 -2 -2 16.804 -2 40H0H2C2 19.0132 19.0132 2 40 2V0Z" fill="#C9A24D" fill-opacity="0.2" mask="url(#path-1-inside-1_28_1904)"/>
<path d="M39.2084 23.825C39.2814 23.6774 39.3943 23.5532 39.5341 23.4664C39.674 23.3795 39.8354 23.3335 40.0001 23.3335C40.1647 23.3335 40.3261 23.3795 40.466 23.4664C40.6058 23.5532 40.7187 23.6774 40.7917 23.825L44.6417 31.6233C44.8953 32.1366 45.2697 32.5807 45.7328 32.9174C46.1958 33.2541 46.7336 33.4735 47.3 33.5567L55.9101 34.8167C56.0732 34.8403 56.2265 34.9091 56.3525 35.0153C56.4786 35.1215 56.5724 35.2609 56.6234 35.4177C56.6744 35.5744 56.6805 35.7423 56.641 35.9024C56.6016 36.0624 56.5181 36.2082 56.4001 36.3233L50.1734 42.3867C49.7627 42.7868 49.4555 43.2808 49.2781 43.826C49.1007 44.3713 49.0585 44.9515 49.1551 45.5167L50.6251 54.0833C50.6539 54.2464 50.6362 54.4143 50.5742 54.5678C50.5122 54.7213 50.4083 54.8543 50.2743 54.9516C50.1403 55.049 49.9817 55.1067 49.8165 55.1181C49.6513 55.1296 49.4862 55.0945 49.3401 55.0167L41.6434 50.97C41.1362 50.7037 40.572 50.5646 39.9992 50.5646C39.4264 50.5646 38.8622 50.7037 38.355 50.97L30.66 55.0167C30.5139 55.094 30.349 55.1288 30.1841 55.1171C30.0192 55.1054 29.8609 55.0476 29.7272 54.9503C29.5935 54.8531 29.4898 54.7203 29.4278 54.567C29.3658 54.4137 29.3481 54.2462 29.3767 54.0833L30.845 45.5183C30.942 44.9529 30.9 44.3723 30.7226 43.8267C30.5452 43.2811 30.2377 42.7869 29.8267 42.3867L23.6 36.325C23.481 36.21 23.3967 36.064 23.3567 35.9034C23.3166 35.7429 23.3224 35.5743 23.3735 35.417C23.4246 35.2596 23.5188 35.1197 23.6455 35.0133C23.7722 34.9069 23.9262 34.8381 24.09 34.815L32.6984 33.5567C33.2655 33.4742 33.804 33.2551 34.2677 32.9183C34.7313 32.5815 35.1062 32.1371 35.36 31.6233L39.2084 23.825Z" stroke="#C9A24D" stroke-width="3.33333" stroke-linecap="round" stroke-linejoin="round"/>
</svg>
