<svg width="307" height="20" viewBox="0 0 307 20" fill="none" xmlns="http://www.w3.org/2000/svg">
<path d="M15 1.66675H12.5C11.395 1.66675 10.3352 2.10573 9.55376 2.88714C8.77236 3.66854 8.33337 4.72835 8.33337 5.83341V8.33341H5.83337V11.6667H8.33337V18.3334H11.6667V11.6667H14.1667L15 8.33341H11.6667V5.83341C11.6667 5.6124 11.7545 5.40044 11.9108 5.24416C12.0671 5.08788 12.279 5.00008 12.5 5.00008H15V1.66675Z" stroke="#F8F6F2" stroke-width="1.66667" stroke-linecap="round" stroke-linejoin="round"/>
<path d="M50.1666 1.66675H41.8333C39.5321 1.66675 37.6666 3.53223 37.6666 5.83341V14.1667C37.6666 16.4679 39.5321 18.3334 41.8333 18.3334H50.1666C52.4678 18.3334 54.3333 16.4679 54.3333 14.1667V5.83341C54.3333 3.53223 52.4678 1.66675 50.1666 1.66675Z" stroke="#F8F6F2" stroke-width="1.66667" stroke-linecap="round" stroke-linejoin="round"/>
<path d="M49.3334 9.47501C49.4362 10.1685 49.3178 10.8769 48.9948 11.4992C48.6719 12.1215 48.161 12.6262 47.5347 12.9414C46.9085 13.2566 46.1987 13.3663 45.5065 13.255C44.8143 13.1436 44.1748 12.8167 43.6791 12.321C43.1833 11.8252 42.8565 11.1857 42.7451 10.4935C42.6337 9.8013 42.7434 9.09159 43.0586 8.46532C43.3739 7.83905 43.8785 7.32812 44.5009 7.00521C45.1232 6.68229 45.8315 6.56383 46.525 6.66667C47.2325 6.77158 47.8874 7.10123 48.3931 7.60693C48.8988 8.11263 49.2285 8.76757 49.3334 9.47501Z" stroke="#F8F6F2" stroke-width="1.66667" stroke-linecap="round" stroke-linejoin="round"/>
<path d="M50.5834 5.41675H50.5917" stroke="#F8F6F2" stroke-width="1.66667" stroke-linecap="round" stroke-linejoin="round"/>
<path d="M90.3333 3.33343C90.3333 3.33343 89.75 5.08343 88.6666 6.16677C90 14.5001 80.8333 20.5834 73.6666 15.8334C75.5 15.9168 77.3333 15.3334 78.6666 14.1668C74.5 12.9168 72.4166 8.0001 74.5 4.16677C76.3333 6.33343 79.1666 7.58343 82 7.5001C81.25 4.0001 85.3333 2.0001 87.8333 4.33343C88.75 4.33343 90.3333 3.33343 90.3333 3.33343Z" stroke="#F8F6F2" stroke-width="1.66667" stroke-linecap="round" stroke-linejoin="round"/>
</svg>
