<svg width="34" height="34" viewBox="0 0 34 34" fill="none" xmlns="http://www.w3.org/2000/svg">
<path d="M17.2106 17.0424C19.0949 17.0424 20.6224 15.5148 20.6224 13.6306C20.6224 11.7463 19.0949 10.2188 17.2106 10.2188C15.3263 10.2188 13.7988 11.7463 13.7988 13.6306C13.7988 15.5148 15.3263 17.0424 17.2106 17.0424Z" fill="white"/>
<path d="M24.8261 13.7463C24.8261 9.34756 21.4578 5.76953 17.3164 5.76953C13.175 5.76953 9.80664 9.34756 9.80664 13.7482C9.80759 13.9678 9.91195 19.2302 15.9266 28.5028C16.0504 28.7572 16.2381 28.9751 16.4714 29.1352C16.7046 29.2953 16.9755 29.3921 17.2574 29.4161C18.1263 29.4161 18.7184 28.4593 18.776 28.3621C24.8294 19.0843 24.8294 13.9555 24.8261 13.7463ZM17.3164 16.9593C16.6549 16.9593 16.0082 16.7631 15.4581 16.3956C14.9081 16.0281 14.4794 15.5057 14.2262 14.8945C13.9731 14.2834 13.9069 13.6108 14.0359 12.962C14.165 12.3132 14.4835 11.7172 14.9513 11.2495C15.4191 10.7817 16.015 10.4631 16.6639 10.3341C17.3127 10.205 17.9852 10.2713 18.5964 10.5244C19.2075 10.7776 19.7299 11.2063 20.0974 11.7563C20.465 12.3064 20.6611 12.953 20.6611 13.6146C20.6603 14.5014 20.3076 15.3516 19.6805 15.9787C19.0534 16.6058 18.2032 16.9584 17.3164 16.9593Z" fill="#D22F27"/>
<path d="M24.8261 13.7463C24.8261 9.34756 21.4577 5.76953 17.3163 5.76953C16.6998 5.77238 16.0862 5.85572 15.4912 6.01745C19.4555 6.22995 22.6218 9.71164 22.6218 13.9744C22.6246 14.1836 22.6246 19.3119 16.5712 28.5897C16.4895 28.7225 16.3969 28.8484 16.2945 28.966C16.54 29.2418 16.888 29.4043 17.2578 29.4165C18.1262 29.4165 18.7184 28.4593 18.776 28.3621C24.8294 19.0843 24.8294 13.9555 24.8261 13.7463Z" fill="#EA5A47"/>
<path d="M17.2578 29.4165C16.976 29.3924 16.7052 29.2955 16.472 29.1354C16.2388 28.9752 16.0512 28.7572 15.9276 28.5028C9.91242 19.2302 9.80806 13.9683 9.80664 13.7482C9.80664 9.34709 13.1755 5.76953 17.3169 5.76953C21.4583 5.76953 24.8266 9.34756 24.8266 13.7463C24.8299 13.956 24.8299 19.0843 18.7765 28.3616C18.7189 28.4593 18.1263 29.4165 17.2578 29.4165Z" stroke="black" stroke-width="0.5" stroke-linecap="round" stroke-linejoin="round"/>
<path d="M17.3164 16.959C16.6549 16.959 16.0082 16.7629 15.4582 16.3953C14.9081 16.0278 14.4794 15.5054 14.2263 14.8943C13.9731 14.2831 13.9069 13.6106 14.0359 12.9618C14.165 12.3129 14.4836 11.717 14.9513 11.2492C15.4191 10.7814 16.0151 10.4629 16.6639 10.3338C17.3127 10.2047 17.9852 10.271 18.5964 10.5241C19.2076 10.7773 19.73 11.206 20.0975 11.756C20.465 12.3061 20.6612 12.9528 20.6612 13.6143C20.6603 14.5011 20.3076 15.3513 19.6806 15.9784C19.0535 16.6055 18.2032 16.9582 17.3164 16.959Z" stroke="black" stroke-width="0.5" stroke-linecap="round" stroke-linejoin="round"/>
</svg>
