<svg width="32" height="32" viewBox="0 0 32 32" fill="none" xmlns="http://www.w3.org/2000/svg">
<path d="M15.416 4.35468C15.4736 4.25015 15.5581 4.16299 15.6609 4.10228C15.7636 4.04158 15.8807 4.00955 16 4.00955C16.1194 4.00955 16.2365 4.04158 16.3392 4.10228C16.4419 4.16299 16.5265 4.25015 16.584 4.35468L20.52 11.8267C20.6139 11.9997 20.7449 12.1498 20.9036 12.2662C21.0624 12.3826 21.2449 12.4623 21.4382 12.4998C21.6314 12.5373 21.8305 12.5315 22.0213 12.4829C22.212 12.4343 22.3896 12.3441 22.5414 12.2187L28.244 7.33334C28.3535 7.24431 28.4884 7.1923 28.6293 7.18481C28.7702 7.17732 28.9099 7.21474 29.0282 7.29167C29.1465 7.36861 29.2373 7.48109 29.2876 7.61293C29.3379 7.74477 29.345 7.88917 29.308 8.02534L25.5294 21.6867C25.4522 21.9662 25.2861 22.213 25.056 22.3896C24.826 22.5662 24.5447 22.663 24.2547 22.6653H7.7467C7.45648 22.6633 7.17485 22.5667 6.94456 22.39C6.71427 22.2134 6.5479 21.9665 6.4707 21.6867L2.69337 8.02668C2.65637 7.89051 2.66353 7.74611 2.71382 7.61427C2.76412 7.48242 2.85495 7.36994 2.97324 7.29301C3.09153 7.21607 3.23118 7.17866 3.37209 7.18615C3.513 7.19363 3.6479 7.24564 3.75737 7.33468L9.4587 12.22C9.61043 12.3454 9.78805 12.4356 9.97879 12.4842C10.1695 12.5329 10.3687 12.5386 10.5619 12.5012C10.7551 12.4637 10.9377 12.3839 11.0964 12.2675C11.2552 12.1511 11.3862 12.001 11.48 11.828L15.416 4.35468Z" stroke="#C9A24D" stroke-width="2.66667" stroke-linecap="round" stroke-linejoin="round"/>
<path d="M6.66663 28H25.3333" stroke="#C9A24D" stroke-width="2.66667" stroke-linecap="round" stroke-linejoin="round"/>
</svg>
