<svg width="30" height="30" viewBox="0 0 30 30" fill="none" xmlns="http://www.w3.org/2000/svg">
<path d="M18.75 13.75H20.625V11.25H23.125C23.6458 11.25 24.0887 11.0679 24.4538 10.7037C24.8188 10.3396 25.0008 9.89667 25 9.375V8.125C25 7.60417 24.8179 7.16167 24.4538 6.7975C24.0896 6.43333 23.6467 6.25083 23.125 6.25H18.75V13.75ZM20.625 9.375V8.125H23.125V9.375H20.625ZM16.25 17.5C15.5625 17.5 14.9742 17.2554 14.485 16.7663C13.9958 16.2771 13.7508 15.6883 13.75 15V5C13.75 4.3125 13.995 3.72417 14.485 3.235C14.975 2.74583 15.5633 2.50083 16.25 2.5H26.25C26.9375 2.5 27.5263 2.745 28.0163 3.235C28.5063 3.725 28.7508 4.31333 28.75 5V15C28.75 15.6875 28.5054 16.2762 28.0163 16.7663C27.5271 17.2563 26.9383 17.5008 26.25 17.5H22.5V26.25H20V17.5H16.25ZM16.25 15H26.25V5H16.25V15ZM10 26.25C9.64583 26.25 9.34917 26.13 9.11 25.89C8.87083 25.65 8.75083 25.3533 8.75 25V23.75H2.5V21.25H10V15H2.5V12.5H9L7.6875 8.75H2.5V6.25H8.125C8.52083 6.25 8.88042 6.36458 9.20375 6.59375C9.52708 6.82292 9.75083 7.125 9.875 7.5L12.5 15V25C12.5 25.3542 12.38 25.6512 12.14 25.8912C11.9 26.1312 11.6033 26.2508 11.25 26.25H10ZM6.875 20C7.39583 20 7.83875 19.8179 8.20375 19.4538C8.56875 19.0896 8.75083 18.6467 8.75 18.125C8.74917 17.6033 8.56708 17.1608 8.20375 16.7975C7.84042 16.4342 7.3975 16.2517 6.875 16.25C6.3525 16.2483 5.91 16.4308 5.5475 16.7975C5.185 17.1642 5.0025 17.6067 5 18.125C4.9975 18.6433 5.18 19.0863 5.5475 19.4538C5.915 19.8212 6.3575 20.0033 6.875 20Z" fill="black"/>
</svg>
