<svg width="40" height="40" viewBox="0 0 40 40" fill="none" xmlns="http://www.w3.org/2000/svg">
<path d="M11.1329 5.53308L12.1546 4.51141C12.4672 4.19896 12.891 4.02344 13.3329 4.02344C13.7749 4.02344 14.1987 4.19896 14.5113 4.51141L18.8213 8.82141C19.1337 9.13396 19.3092 9.55781 19.3092 9.99975C19.3092 10.4417 19.1337 10.8655 18.8213 11.1781L15.8329 14.1664C15.5901 14.4092 15.4299 14.7223 15.3751 15.0613C15.3203 15.4003 15.3738 15.7479 15.5279 16.0547C17.3498 19.6964 20.3029 22.6495 23.9446 24.4714C24.2516 24.6253 24.5994 24.6785 24.9384 24.6235C25.2774 24.5684 25.5904 24.4079 25.8329 24.1647L28.8213 21.1781C29.1338 20.8656 29.5577 20.6901 29.9996 20.6901C30.4415 20.6901 30.8654 20.8656 31.1779 21.1781L35.4879 25.4881C35.8004 25.8006 35.9759 26.2245 35.9759 26.6664C35.9759 27.1084 35.8004 27.5322 35.4879 27.8447L34.4663 28.8664C32.7643 30.5688 30.5052 31.6002 28.104 31.771C25.7028 31.9418 23.3205 31.2407 21.3946 29.7964L19.3813 28.2847C16.4754 26.1053 13.894 23.524 11.7146 20.6181L10.2029 18.6047C8.75862 16.6789 8.05751 14.2966 8.22835 11.8953C8.39919 9.49411 9.43051 7.23509 11.1329 5.53308Z" fill="black"/>
</svg>
