<svg width="80" height="80" viewBox="0 0 80 80" fill="none" xmlns="http://www.w3.org/2000/svg">
<mask id="path-1-inside-1_28_1912" fill="white">
<path d="M0 40C0 17.9086 17.9086 0 40 0C62.0914 0 80 17.9086 80 40C80 62.0914 62.0914 80 40 80C17.9086 80 0 62.0914 0 40Z"/>
</mask>
<path d="M0 40C0 17.9086 17.9086 0 40 0C62.0914 0 80 17.9086 80 40C80 62.0914 62.0914 80 40 80C17.9086 80 0 62.0914 0 40Z" fill="#F8F6F2"/>
<path d="M0 40M80 40M80 40M0 40M40 0M80 40M40 80M0 40M40 80V78C19.0132 78 2 60.9868 2 40H0H-2C-2 63.196 16.804 82 40 82V80ZM80 40H78C78 60.9868 60.9868 78 40 78V80V82C63.196 82 82 63.196 82 40H80ZM40 0V2C60.9868 2 78 19.0132 78 40H80H82C82 16.804 63.196 -2 40 -2V0ZM40 0V-2C16.804 -2 -2 16.804 -2 40H0H2C2 19.0132 19.0132 2 40 2V0Z" fill="#C9A24D" fill-opacity="0.2" mask="url(#path-1-inside-1_28_1912)"/>
<path d="M53.3333 41.6666C53.3333 49.9999 47.5 54.1666 40.5667 56.5833C40.2036 56.7063 39.8092 56.7004 39.45 56.5666C32.5 54.1666 26.6667 49.9999 26.6667 41.6666V29.9999C26.6667 29.5579 26.8423 29.134 27.1548 28.8214C27.4674 28.5089 27.8913 28.3333 28.3333 28.3333C31.6667 28.3333 35.8333 26.3333 38.7333 23.7999C39.0864 23.4983 39.5356 23.3325 40 23.3325C40.4644 23.3325 40.9136 23.4983 41.2667 23.7999C44.1833 26.3499 48.3333 28.3333 51.6667 28.3333C52.1087 28.3333 52.5326 28.5089 52.8452 28.8214C53.1577 29.134 53.3333 29.5579 53.3333 29.9999V41.6666Z" stroke="#C9A24D" stroke-width="3.33333" stroke-linecap="round" stroke-linejoin="round"/>
</svg>
