<svg width="30" height="30" viewBox="0 0 30 30" fill="none" xmlns="http://www.w3.org/2000/svg">
<path d="M6.39 30V15.7358C4.60538 15.5495 3.09385 14.9895 1.85538 14.0558C0.618461 13.1232 0 11.9805 0 10.6279V0H2.30769V10.6263H6.39V0H8.69769V10.6263H12.7823V0H15.09V10.6263C15.09 11.98 14.4708 13.1232 13.2323 14.0558C11.9923 14.9895 10.4808 15.5495 8.69769 15.7358V30H6.39ZM27.69 30V17.3684H22.0131V7.10526C22.0131 5.34632 22.7377 3.78842 24.1869 2.43158C25.6392 1.07368 27.5769 0.283684 30 0.061579V30H27.69Z" fill="black"/>
</svg>
