<svg width="30" height="30" viewBox="0 0 30 30" fill="none" xmlns="http://www.w3.org/2000/svg">
<path d="M28.3384 24.6001H18.6004V27.0001H28.4404C29.2504 27.0001 29.4004 26.2981 29.4004 26.2981V25.7161C29.4004 25.7161 29.3944 24.6061 28.3384 24.6061V24.6001ZM26.9944 24.1261C28.3204 24.1261 29.4004 23.0461 29.4004 21.7141C29.4004 20.3761 28.3204 19.3021 26.9944 19.3021C25.6684 19.3021 24.5884 20.3821 24.5884 21.7141C24.5884 23.0461 25.6684 24.1261 26.9944 24.1261ZM21.9244 24.0001C23.1904 24.0001 24.2044 23.1121 24.2044 21.8461C24.2044 20.5861 23.1844 19.9261 21.9304 19.9141L18.6064 20.3341V23.9941H21.9244V24.0001ZM11.1184 8.35814C12.5944 8.35814 13.7884 7.15814 13.7884 5.67614C13.7884 4.19414 12.5944 2.99414 11.1184 2.99414C9.64244 2.99414 8.44844 4.19414 8.44844 5.67614C8.44844 7.15814 9.64244 8.35814 11.1184 8.35814ZM8.39444 17.0341L8.37044 16.9981L7.15844 14.1841V19.8001H10.7764L11.5684 18.9601L9.42645 18.1381C8.91644 17.9461 8.55644 17.5141 8.40044 17.0341H8.39444ZM9.16245 16.7821C9.28244 17.0461 9.49845 17.2561 9.76845 17.3581L13.8964 18.8881C14.4244 19.1221 15.0424 18.8821 15.2704 18.3481C15.5044 17.8141 15.2644 17.1961 14.7304 16.9621L10.9264 15.5221L9.75044 12.7021L10.5184 12.4141L11.5144 14.8321L14.4064 15.9061V12.9541L15.9424 13.8661L16.7104 17.7241C16.8964 18.2761 17.4904 18.5641 18.0424 18.3721C18.5884 18.1861 18.8764 17.5861 18.6904 17.0341L17.8324 13.3201C17.7784 13.1101 17.6584 12.9301 17.4964 12.7921C17.0584 12.3061 14.8324 9.81614 14.6764 9.65414C14.4424 9.42014 13.9144 9.00014 12.9124 9.00014H9.31244C7.26645 9.00014 6.87044 11.0881 7.29044 12.1501L9.17444 16.7821H9.16245ZM18.0064 20.4001H1.78845C1.20045 20.4001 0.606445 20.7361 0.606445 21.4681V27.0001H18.0064V20.4001Z" fill="black"/>
</svg>
