<svg width="43" height="44" viewBox="0 0 43 44" fill="none" xmlns="http://www.w3.org/2000/svg">
<g clip-path="url(#clip0_8_211)">
<path d="M0.917148 21.7372C0.916141 25.434 1.86752 29.0437 3.67654 32.2254L0.744141 43.0961L11.7011 40.1792C14.7316 41.8542 18.1271 42.7319 21.5776 42.7322H21.5867C32.9775 42.7322 42.2499 33.3211 42.2548 21.7537C42.2569 16.1485 40.109 10.8777 36.2064 6.91226C32.3045 2.94715 27.1151 0.762324 21.5859 0.759766C10.1937 0.759766 0.92202 10.1703 0.917316 21.7372" fill="url(#paint0_linear_8_211)"/>
<path d="M0.179727 21.7299C0.178551 25.5597 1.16402 29.2985 3.03755 32.5941L0 43.8545L11.3498 40.833C14.4771 42.5642 17.998 43.4769 21.5808 43.4783H21.59C33.3895 43.4783 42.995 33.7287 43 21.7473C43.002 15.9406 40.7768 10.4804 36.7348 6.37284C32.6923 2.26583 27.3173 0.0023876 21.59 0C9.78855 0 0.18443 9.74822 0.179727 21.7299ZM6.93896 32.0265L6.51517 31.3435C4.7337 28.4675 3.79341 25.144 3.79475 21.7312C3.79845 11.7724 11.781 3.67008 21.5968 3.67008C26.3503 3.67212 30.8176 5.55355 34.1776 8.96713C37.5375 12.3811 39.3863 16.9192 39.3851 21.7459C39.3808 31.7047 31.3981 39.8081 21.59 39.8081H21.583C18.3894 39.8064 15.2573 38.9356 12.5258 37.29L11.8757 36.8986L5.14052 38.6915L6.93896 32.0265Z" fill="url(#paint1_linear_8_211)"/>
<path d="M16.2388 12.6445C15.838 11.7401 15.4162 11.7219 15.0351 11.706C14.723 11.6924 14.3663 11.6934 14.0098 11.6934C13.6531 11.6934 13.0734 11.8296 12.5835 12.3728C12.093 12.9165 10.7109 14.2304 10.7109 16.9026C10.7109 19.5748 12.628 22.1575 12.8952 22.5203C13.1628 22.8823 16.5961 28.5416 22.0335 30.7188C26.5526 32.5281 27.4722 32.1682 28.453 32.0775C29.4339 31.9871 31.6182 30.764 32.0638 29.4956C32.5098 28.2275 32.5098 27.1404 32.3761 26.9133C32.2423 26.687 31.8856 26.5511 31.3506 26.2795C30.8156 26.008 28.1854 24.6938 27.6951 24.5126C27.2046 24.3314 26.848 24.2411 26.4913 24.7849C26.1345 25.3279 25.1101 26.5511 24.7978 26.9133C24.4859 27.2764 24.1736 27.3216 23.6388 27.0499C23.1035 26.7774 21.3806 26.2045 19.3366 24.3543C17.7463 22.9146 16.6727 21.1367 16.3606 20.5928C16.0485 20.0498 16.3271 19.7554 16.5954 19.4848C16.8358 19.2414 17.1305 18.8505 17.3983 18.5335C17.665 18.2163 17.754 17.99 17.9324 17.6277C18.111 17.2652 18.0216 16.948 17.8881 16.6763C17.754 16.4046 16.7145 13.7184 16.2388 12.6445Z" fill="white"/>
</g>
<defs>
<linearGradient id="paint0_linear_8_211" x1="2076.28" y1="4234.4" x2="2076.28" y2="0.759766" gradientUnits="userSpaceOnUse">
<stop stop-color="#1FAF38"/>
<stop offset="1" stop-color="#60D669"/>
</linearGradient>
<linearGradient id="paint1_linear_8_211" x1="2150" y1="4385.45" x2="2150" y2="0" gradientUnits="userSpaceOnUse">
<stop stop-color="#F9F9F9"/>
<stop offset="1" stop-color="white"/>
</linearGradient>
<clipPath id="clip0_8_211">
<rect width="43" height="44" fill="white"/>
</clipPath>
</defs>
</svg>
