<svg width="30" height="30" viewBox="0 0 30 30" fill="none" xmlns="http://www.w3.org/2000/svg">
<path d="M1.25 11.2502L3.75 13.7502C9.9625 7.5377 20.0375 7.5377 26.25 13.7502L28.75 11.2502C21.1625 3.6627 8.85 3.6627 1.25 11.2502ZM11.25 21.2502L15 25.0002L18.75 21.2502C18.258 20.7569 17.6735 20.3655 17.03 20.0985C16.3866 19.8314 15.6967 19.694 15 19.694C14.3033 19.694 13.6134 19.8314 12.97 20.0985C12.3265 20.3655 11.742 20.7569 11.25 21.2502ZM6.25 16.2502L8.75 18.7502C10.4081 17.0935 12.6561 16.1629 15 16.1629C17.3439 16.1629 19.5919 17.0935 21.25 18.7502L23.75 16.2502C18.925 11.4252 11.0875 11.4252 6.25 16.2502Z" fill="black"/>
</svg>
